<svg width="100%" height="auto" version="1.1" viewBox="0 0 640 480">
	<g transform="scale(0.99) translate(3.2323232323232105,2.424257683031499)">
		<g transform="scale(1.0257127789306795) translate(-28.642354998594612,-6.016392256026023)">
			<g transform="scale(1) translate(0,0)">
				<g transform="scale(3.4013341071971436) translate(130,36)" fill="#f44c4c">
					<g>
						<g stroke="none" stroke-width="1" fill="none" fill-rule="evenodd">
							<g fill="#000000" stroke="#f44c4c">
								<path d="M46,29.748 C46,28.868 45.657,28.041 45.035,27.419 L44.479,26.862 C45.427,26.022 46,24.808 46,23.5 C46,21.019 43.981,19 41.5,19 C41.318,19 41.138,19.018 40.96,19.04 C40.982,18.861 41,18.683 41,18.5 C41,16.019 38.981,14 36.5,14 C36.318,14 36.138,14.018 35.96,14.04 C35.982,13.861 36,13.683 36,13.5 C36,11.019 33.981,9 31.5,9 C31.318,9 31.138,9.018 30.96,9.04 C30.982,8.861 31,8.683 31,8.5 C31,6.019 28.981,4 26.5,4 C25.192,4 23.978,4.573 23.138,5.521 L23.015,5.399 L6.044,22.369 L10.283,26.608 C8.927,27.384 8,28.829 8,30.5 C8,32.066 8.806,33.445 10.023,34.25 L10.244,34.49 L21,45.204 L21,47 L19,47 L19,60 L45,60 L45,47 L43,47 L43,43.971 C44.913,42.349 46,40.019 46,37.5 C46,35.76 45.457,34.07 44.464,32.649 L45.035,32.077 C45.657,31.455 46,30.628 46,29.748 L46,29.748 Z M30,33 C30,30.794 31.794,29 34,29 C36.206,29 38,30.794 38,33 C38,35.206 36.206,37 34,37 C31.794,37 30,35.206 30,33 L30,33 Z M44,23.5 C44,24.267 43.646,24.979 43.063,25.447 L39.553,21.937 C40.021,21.354 40.732,21 41.5,21 C42.879,21 44,22.121 44,23.5 L44,23.5 Z M39,18.5 C39,19.268 38.646,19.98 38.063,20.447 L34.553,16.937 C35.021,16.354 35.732,16 36.5,16 C37.879,16 39,17.121 39,18.5 L39,18.5 Z M34,13.5 C34,14.268 33.647,14.979 33.064,15.447 L29.553,11.937 C30.021,11.353 30.732,11 31.5,11 C32.879,11 34,12.121 34,13.5 L34,13.5 Z M26.5,6 C27.879,6 29,7.121 29,8.5 C29,9.267 28.646,9.979 28.063,10.447 L24.553,6.937 C25.021,6.354 25.732,6 26.5,6 L26.5,6 Z M11.961,28.062 L12.376,28.015 L12.5,28 L22.5,28 C23.879,28 25,29.121 25,30.5 C25,31.879 23.879,33 22.5,33 L12.5,33 C11.121,33 10,31.879 10,30.5 C10,29.306 10.841,28.309 11.961,28.062 L11.961,28.062 Z M29.5,57 C27.57,57 26,55.43 26,53.5 C26,51.57 27.57,50 29.5,50 C31.43,50 33,51.57 33,53.5 C33,55.43 31.43,57 29.5,57 L29.5,57 Z M43,58 L37,58 L37,54.574 C37,52.368 36.046,50.386 34.536,49 L43,49 L43,58 L43,58 Z M43.025,34.088 C43.659,35.11 44,36.29 44,37.5 C44,39.555 43.052,41.446 41.398,42.692 L41,42.991 L41,47 L23,47 L23,44.282 L22.648,43.983 L22.468,43.844 L13.591,35 L18.676,35 L28.065,44.39 C28.688,45.012 29.515,45.354 30.394,45.354 C31.273,45.354 32.101,45.012 32.724,44.39 L43.025,34.088 L43.025,34.088 Z">
								</path>
								<path d="M18.581,0.965 C17.337,-0.279 15.167,-0.279 13.923,0.965 L1.61,13.277 C0.327,14.562 0.327,16.65 1.61,17.936 L4.63,20.956 L21.601,3.985 L18.581,0.965 L18.581,0.965 Z M12.707,9.707 L10.707,11.707 C10.512,11.902 10.256,12 10,12 C9.744,12 9.488,11.902 9.293,11.707 C8.902,11.316 8.902,10.684 9.293,10.293 L11.293,8.293 C11.684,7.902 12.316,7.902 12.707,8.293 C13.098,8.684 13.098,9.317 12.707,9.707 L12.707,9.707 Z">
								</path>
							</g>
						</g>
					</g>
				</g>
			</g>
			<g transform="scale(1.25) translate(-92,-45.79998779296875)">
				<g class="logo--name svgLogoName_1 logoNameBox" transform="scale(1) translate(298.2600012302399,238.36000061035156)" fill="#f44c4c">
					<path d="M77.65-0.82L77.65-0.82L78.97-0.82L78.97 0L54.37 0L54.37-0.74L55.60-0.74L55.60-0.74Q56.99-0.82 57.97-1.89L57.97-1.89L57.97-1.89Q58.96-2.95 58.79-4.26L58.79-4.26L55.60-34.03L40.18-7.46L40.18-7.46Q37.15-2.38 37.06 1.64L37.06 1.64L36.24 1.64L15.17-33.78L11.97-4.26L11.97-4.26Q11.81-2.95 12.79-1.84L12.79-1.84L12.79-1.84Q13.78-0.74 15.17-0.74L15.17-0.74L16.40-0.74L16.40 0L-0.74 0L-0.74-0.82L0.57-0.82L0.57-0.82Q2.87-0.82 4.55-2.21L4.55-2.21L4.55-2.21Q6.23-3.61 6.56-5.99L6.56-5.99L13.37-58.55L14.10-58.55L39.52-16.73L63.96-58.55L64.70-58.55L71.67-5.99L71.67-5.99Q72.08-3.61 73.76-2.21L73.76-2.21L73.76-2.21Q75.44-0.82 77.65-0.82ZM121.52-54.04L110.54-54.04L110.54-5.90L110.54-5.90Q110.62-3.77 112.14-2.30L112.14-2.30L112.14-2.30Q113.65-0.82 115.78-0.82L115.78-0.82L116.77-0.82L116.85 0L91.92 0L91.92-0.82L92.99-0.82L92.99-0.82Q95.04-0.82 96.56-2.30L96.56-2.30L96.56-2.30Q98.07-3.77 98.24-5.82L98.24-5.82L98.24-54.04L87.17-54.04L87.17-54.04Q83.39-53.96 81.18-51.66L81.18-51.66L81.18-51.66Q78.97-49.36 78.97-45.67L78.97-45.67L78.97-44.69L78.15-44.69L78.15-58.96L78.15-58.96Q81.51-57.56 87.82-57.48L87.82-57.48L120.87-57.48L120.87-57.48Q123.41-57.48 126.40-57.97L126.40-57.97L126.40-57.97Q129.40-58.47 130.54-58.96L130.54-58.96L130.54-44.69L129.72-44.69L129.72-45.67L129.72-45.67Q129.72-50.76 125.87-52.89L125.87-52.89L125.87-52.89Q124.07-53.96 121.52-54.04L121.52-54.04Z">
					</path>
				</g>
				<g id="" transform="scale(0.9) translate(150,325.2999984741211)" fill="#f44c4c">
					<path d="M41.70 0L39.20 0L39.15-29.95L24.50-4.65L23.25-4.65L8.60-29.85L8.60 0L6.10 0L6.10-35L8.25-35L23.90-7.95L39.55-35L41.65-35L41.70 0ZM63.30 0.20L63.30 0.20Q59.60 0.20 56.63-1.50L56.63-1.50L56.63-1.50Q53.65-3.20 51.95-6.23L51.95-6.23L51.95-6.23Q50.25-9.25 50.25-13.05L50.25-13.05L50.25-13.05Q50.25-16.85 51.95-19.88L51.95-19.88L51.95-19.88Q53.65-22.90 56.63-24.60L56.63-24.60L56.63-24.60Q59.60-26.30 63.30-26.30L63.30-26.30L63.30-26.30Q67-26.30 69.98-24.60L69.98-24.60L69.98-24.60Q72.95-22.90 74.65-19.88L74.65-19.88L74.65-19.88Q76.35-16.85 76.35-13.05L76.35-13.05L76.35-13.05Q76.35-9.25 74.65-6.23L74.65-6.23L74.65-6.23Q72.95-3.20 69.98-1.50L69.98-1.50L69.98-1.50Q67 0.20 63.30 0.20L63.30 0.20ZM63.30-2.05L63.30-2.05Q66.30-2.05 68.68-3.45L68.68-3.45L68.68-3.45Q71.05-4.85 72.43-7.35L72.43-7.35L72.43-7.35Q73.80-9.85 73.80-13.05L73.80-13.05L73.80-13.05Q73.80-16.25 72.43-18.75L72.43-18.75L72.43-18.75Q71.05-21.25 68.68-22.65L68.68-22.65L68.68-22.65Q66.30-24.05 63.30-24.05L63.30-24.05L63.30-24.05Q60.30-24.05 57.93-22.65L57.93-22.65L57.93-22.65Q55.55-21.25 54.18-18.75L54.18-18.75L54.18-18.75Q52.80-16.25 52.80-13.05L52.80-13.05L52.80-13.05Q52.80-9.85 54.18-7.35L54.18-7.35L54.18-7.35Q55.55-4.85 57.93-3.45L57.93-3.45L57.93-3.45Q60.30-2.05 63.30-2.05L63.30-2.05ZM96.85-26.30L96.85-26.30Q101.75-26.30 104.60-23.45L104.60-23.45L104.60-23.45Q107.45-20.60 107.45-15.25L107.45-15.25L107.45 0L104.95 0L104.95-15.05L104.95-15.05Q104.95-19.45 102.73-21.75L102.73-21.75L102.73-21.75Q100.50-24.05 96.50-24.05L96.50-24.05L96.50-24.05Q91.90-24.05 89.25-21.30L89.25-21.30L89.25-21.30Q86.60-18.55 86.60-13.90L86.60-13.90L86.60 0L84.10 0L84.10-26.10L86.50-26.10L86.50-20.45L86.50-20.45Q87.85-23.20 90.53-24.75L90.53-24.75L90.53-24.75Q93.20-26.30 96.85-26.30L96.85-26.30ZM139.85-13.15L139.80-12.45L117.35-12.45L117.35-12.45Q117.45-9.40 118.90-7.03L118.90-7.03L118.90-7.03Q120.35-4.65 122.83-3.35L122.83-3.35L122.83-3.35Q125.30-2.05 128.40-2.05L128.40-2.05L128.40-2.05Q130.95-2.05 133.13-2.98L133.13-2.98L133.13-2.98Q135.30-3.90 136.75-5.70L136.75-5.70L138.20-4.05L138.20-4.05Q136.50-2 133.93-0.90L133.93-0.90L133.93-0.90Q131.35 0.20 128.35 0.20L128.35 0.20L128.35 0.20Q124.45 0.20 121.40-1.50L121.40-1.50L121.40-1.50Q118.35-3.20 116.63-6.20L116.63-6.20L116.63-6.20Q114.90-9.20 114.90-13.05L114.90-13.05L114.90-13.05Q114.90-16.85 116.53-19.88L116.53-19.88L116.53-19.88Q118.15-22.90 121.00-24.60L121.00-24.60L121.00-24.60Q123.85-26.30 127.40-26.30L127.40-26.30L127.40-26.30Q130.95-26.30 133.78-24.63L133.78-24.63L133.78-24.63Q136.60-22.95 138.23-19.95L138.23-19.95L138.23-19.95Q139.85-16.95 139.85-13.15L139.85-13.15ZM127.40-24.10L127.40-24.10Q124.65-24.10 122.45-22.88L122.45-22.88L122.45-22.88Q120.25-21.65 118.93-19.43L118.93-19.43L118.93-19.43Q117.60-17.20 117.40-14.40L117.40-14.40L137.40-14.40L137.40-14.40Q137.25-17.20 135.90-19.40L135.90-19.40L135.90-19.40Q134.55-21.60 132.35-22.85L132.35-22.85L132.35-22.85Q130.15-24.10 127.40-24.10L127.40-24.10ZM166-26.10L168.55-26.10L155.15 3.55L155.15 3.55Q153.65 7 151.68 8.45L151.68 8.45L151.68 8.45Q149.70 9.90 147 9.90L147 9.90L147 9.90Q145.20 9.90 143.63 9.30L143.63 9.30L143.63 9.30Q142.05 8.70 140.95 7.55L140.95 7.55L142.20 5.65L142.20 5.65Q144.20 7.70 147.05 7.70L147.05 7.70L147.05 7.70Q148.95 7.70 150.30 6.65L150.30 6.65L150.30 6.65Q151.65 5.60 152.80 3.05L152.80 3.05L154.20-0.10L142.45-26.10L145.10-26.10L155.55-2.75L166-26.10ZM194.35 0L194.35-32.70L181.75-32.70L181.75-35L209.50-35L209.50-32.70L196.90-32.70L196.90 0L194.35 0ZM217.40-20.40L217.40-20.40Q218.60-23.25 221.15-24.78L221.15-24.78L221.15-24.78Q223.70-26.30 227.35-26.30L227.35-26.30L227.35-23.85L226.75-23.90L226.75-23.90Q222.40-23.90 219.95-21.18L219.95-21.18L219.95-21.18Q217.50-18.45 217.50-13.60L217.50-13.60L217.50 0L215.00 0L215.00-26.10L217.40-26.10L217.40-20.40ZM243.50-26.30L243.50-26.30Q248.35-26.30 250.95-23.83L250.95-23.83L250.95-23.83Q253.55-21.35 253.55-16.55L253.55-16.55L253.55 0L251.15 0L251.15-4.65L251.15-4.65Q249.90-2.35 247.50-1.07L247.50-1.07L247.50-1.07Q245.10 0.20 241.75 0.20L241.75 0.20L241.75 0.20Q237.40 0.20 234.88-1.85L234.88-1.85L234.88-1.85Q232.35-3.90 232.35-7.25L232.35-7.25L232.35-7.25Q232.35-10.50 234.68-12.53L234.68-12.53L234.68-12.53Q237.00-14.55 242.10-14.55L242.10-14.55L251.05-14.55L251.05-16.65L251.05-16.65Q251.05-20.30 249.08-22.20L249.08-22.20L249.08-22.20Q247.10-24.10 243.30-24.10L243.30-24.10L243.30-24.10Q240.70-24.10 238.33-23.20L238.33-23.20L238.33-23.20Q235.95-22.30 234.30-20.80L234.30-20.80L233.05-22.60L233.05-22.60Q235.00-24.35 237.75-25.33L237.75-25.33L237.75-25.33Q240.50-26.30 243.50-26.30L243.50-26.30ZM242.10-1.85L242.10-1.85Q245.35-1.85 247.63-3.35L247.63-3.35L247.63-3.35Q249.90-4.85 251.05-7.70L251.05-7.70L251.05-12.60L242.15-12.60L242.15-12.60Q238.30-12.60 236.58-11.20L236.58-11.20L236.58-11.20Q234.85-9.80 234.85-7.35L234.85-7.35L234.85-7.35Q234.85-4.80 236.75-3.33L236.75-3.33L236.75-3.33Q238.65-1.85 242.10-1.85L242.10-1.85ZM274.20 0.20L274.20 0.20Q270.40 0.20 267.40-1.50L267.40-1.50L267.40-1.50Q264.40-3.20 262.70-6.23L262.70-6.23L262.70-6.23Q261-9.25 261-13.05L261-13.05L261-13.05Q261-16.90 262.70-19.93L262.70-19.93L262.70-19.93Q264.40-22.95 267.40-24.63L267.40-24.63L267.40-24.63Q270.40-26.30 274.20-26.30L274.20-26.30L274.20-26.30Q277.35-26.30 279.93-25.08L279.93-25.08L279.93-25.08Q282.50-23.85 284.10-21.50L284.10-21.50L282.25-20.15L282.25-20.15Q280.85-22.10 278.78-23.08L278.78-23.08L278.78-23.08Q276.70-24.05 274.20-24.05L274.20-24.05L274.20-24.05Q271.15-24.05 268.73-22.68L268.73-22.68L268.73-22.68Q266.30-21.30 264.93-18.80L264.93-18.80L264.93-18.80Q263.55-16.30 263.55-13.05L263.55-13.05L263.55-13.05Q263.55-9.80 264.93-7.30L264.93-7.30L264.93-7.30Q266.30-4.80 268.73-3.43L268.73-3.43L268.73-3.43Q271.15-2.05 274.20-2.05L274.20-2.05L274.20-2.05Q276.70-2.05 278.78-3.03L278.78-3.03L278.78-3.03Q280.85-4 282.25-5.95L282.25-5.95L284.10-4.60L284.10-4.60Q282.50-2.25 279.93-1.03L279.93-1.03L279.93-1.03Q277.35 0.20 274.20 0.20L274.20 0.20ZM312 0L300.90-13.95L294.10-7.75L294.10 0L291.60 0L291.60-37.10L294.10-37.10L294.10-10.85L310.80-26.10L314-26.10L302.75-15.55L315.10 0L312 0Z">
					</path>
				</g>
			</g>
		</g>
	</g>
</svg>
